<svg width="1124" height="408" xmlns="http://www.w3.org/2000/svg" xmlns:xlink="http://www.w3.org/1999/xlink" overflow="hidden"><defs><clipPath id="clip0"><rect x="21" y="261" width="1124" height="408"/></clipPath></defs><g clip-path="url(#clip0)" transform="translate(-21 -261)"><text font-family="Calibri,Calibri_MSFontService,sans-serif" font-weight="400" font-size="37" transform="translate(149.135 636)">k<tspan x="25.5" y="0">=</tspan><tspan x="52.6667" y="0">0</tspan><tspan x="402.378" y="0">k</tspan><tspan x="427.878" y="0">=</tspan><tspan x="455.045" y="0">1</tspan><tspan x="801.812" y="0">k</tspan><tspan x="827.312" y="0">=</tspan><tspan x="854.478" y="0">2</tspan></text><path d="M960.5 420.5C960.5 407.798 970.574 397.5 983 397.5 995.426 397.5 1005.5 407.798 1005.5 420.5 1005.5 433.203 995.426 443.5 983 443.5 970.574 443.5 960.5 433.203 960.5 420.5Z" stroke="#2F528F" stroke-width="3" stroke-miterlimit="8" fill="#ED7D31" fill-rule="evenodd"/><path d="M891.5 420C891.5 407.574 901.797 397.5 914.5 397.5 927.203 397.5 937.5 407.574 937.5 420 937.5 432.426 927.203 442.5 914.5 442.5 901.797 442.5 891.5 432.426 891.5 420Z" stroke="#2F528F" stroke-width="3" stroke-miterlimit="8" fill="#4472C4" fill-rule="evenodd"/><path d="M1029.5 420C1029.5 407.574 1039.57 397.5 1052 397.5 1064.43 397.5 1074.5 407.574 1074.5 420 1074.5 432.426 1064.43 442.5 1052 442.5 1039.57 442.5 1029.5 432.426 1029.5 420Z" stroke="#2F528F" stroke-width="3" stroke-miterlimit="8" fill="#4472C4" fill-rule="evenodd"/><path d="M960.5 487C960.5 474.574 970.574 464.5 983 464.5 995.426 464.5 1005.5 474.574 1005.5 487 1005.5 499.426 995.426 509.5 983 509.5 970.574 509.5 960.5 499.426 960.5 487Z" stroke="#2F528F" stroke-width="3" stroke-miterlimit="8" fill="#4472C4" fill-rule="evenodd"/><path d="M891.5 487C891.5 474.574 901.797 464.5 914.5 464.5 927.203 464.5 937.5 474.574 937.5 487 937.5 499.426 927.203 509.5 914.5 509.5 901.797 509.5 891.5 499.426 891.5 487Z" stroke="#2F528F" stroke-width="3" stroke-miterlimit="8" fill="#4472C4" fill-rule="evenodd"/><path d="M1029.5 487C1029.5 474.574 1039.57 464.5 1052 464.5 1064.43 464.5 1074.5 474.574 1074.5 487 1074.5 499.426 1064.43 509.5 1052 509.5 1039.57 509.5 1029.5 499.426 1029.5 487Z" stroke="#2F528F" stroke-width="3" stroke-miterlimit="8" fill="#4472C4" fill-rule="evenodd"/><path d="M823.5 420C823.5 407.574 833.574 397.5 846 397.5 858.426 397.5 868.5 407.574 868.5 420 868.5 432.426 858.426 442.5 846 442.5 833.574 442.5 823.5 432.426 823.5 420Z" stroke="#2F528F" stroke-width="3" stroke-miterlimit="8" fill="#4472C4" fill-rule="evenodd"/><path d="M1097.5 420C1097.5 407.574 1107.57 397.5 1120 397.5 1132.43 397.5 1142.5 407.574 1142.5 420 1142.5 432.426 1132.43 442.5 1120 442.5 1107.57 442.5 1097.5 432.426 1097.5 420Z" stroke="#2F528F" stroke-width="3" stroke-miterlimit="8" fill="#4472C4" fill-rule="evenodd"/><path d="M960.5 553.5C960.5 540.797 970.797 530.5 983.5 530.5 996.203 530.5 1006.5 540.797 1006.5 553.5 1006.5 566.203 996.203 576.5 983.5 576.5 970.797 576.5 960.5 566.203 960.5 553.5Z" stroke="#2F528F" stroke-width="3" stroke-miterlimit="8" fill="#4472C4" fill-rule="evenodd"/><path d="M823.5 486C823.5 473.574 833.574 463.5 846 463.5 858.426 463.5 868.5 473.574 868.5 486 868.5 498.426 858.426 508.5 846 508.5 833.574 508.5 823.5 498.426 823.5 486Z" stroke="#2F528F" stroke-width="3" stroke-miterlimit="8" fill="none" fill-rule="evenodd"/><path d="M891.5 553C891.5 540.574 901.797 530.5 914.5 530.5 927.203 530.5 937.5 540.574 937.5 553 937.5 565.426 927.203 575.5 914.5 575.5 901.797 575.5 891.5 565.426 891.5 553Z" stroke="#2F528F" stroke-width="3" stroke-miterlimit="8" fill="none" fill-rule="evenodd"/><path d="M823.5 553C823.5 540.574 833.574 530.5 846 530.5 858.426 530.5 868.5 540.574 868.5 553 868.5 565.426 858.426 575.5 846 575.5 833.574 575.5 823.5 565.426 823.5 553Z" stroke="#2F528F" stroke-width="3" stroke-miterlimit="8" fill="none" fill-rule="evenodd"/><path d="M1097.5 486C1097.5 473.574 1107.57 463.5 1120 463.5 1132.43 463.5 1142.5 473.574 1142.5 486 1142.5 498.426 1132.43 508.5 1120 508.5 1107.57 508.5 1097.5 498.426 1097.5 486Z" stroke="#2F528F" stroke-width="3" stroke-miterlimit="8" fill="none" fill-rule="evenodd"/><path d="M1029.5 553C1029.5 540.574 1039.57 530.5 1052 530.5 1064.43 530.5 1074.5 540.574 1074.5 553 1074.5 565.426 1064.43 575.5 1052 575.5 1039.57 575.5 1029.5 565.426 1029.5 553Z" stroke="#2F528F" stroke-width="3" stroke-miterlimit="8" fill="none" fill-rule="evenodd"/><path d="M1097.5 553C1097.5 540.574 1107.57 530.5 1120 530.5 1132.43 530.5 1142.5 540.574 1142.5 553 1142.5 565.426 1132.43 575.5 1120 575.5 1107.57 575.5 1097.5 565.426 1097.5 553Z" stroke="#2F528F" stroke-width="3" stroke-miterlimit="8" fill="none" fill-rule="evenodd"/><path d="M960.5 288.5C960.5 275.798 970.574 265.5 983 265.5 995.426 265.5 1005.5 275.798 1005.5 288.5 1005.5 301.203 995.426 311.5 983 311.5 970.574 311.5 960.5 301.203 960.5 288.5Z" stroke="#2F528F" stroke-width="3" stroke-miterlimit="8" fill="#4472C4" fill-rule="evenodd"/><path d="M891.5 288.5C891.5 275.798 901.797 265.5 914.5 265.5 927.203 265.5 937.5 275.798 937.5 288.5 937.5 301.203 927.203 311.5 914.5 311.5 901.797 311.5 891.5 301.203 891.5 288.5Z" stroke="#2F528F" stroke-width="3" stroke-miterlimit="8" fill="none" fill-rule="evenodd"/><path d="M1028.5 288.5C1028.5 275.798 1038.8 265.5 1051.5 265.5 1064.2 265.5 1074.5 275.798 1074.5 288.5 1074.5 301.203 1064.2 311.5 1051.5 311.5 1038.8 311.5 1028.5 301.203 1028.5 288.5Z" stroke="#2F528F" stroke-width="3" stroke-miterlimit="8" fill="none" fill-rule="evenodd"/><path d="M960.5 355C960.5 342.574 970.574 332.5 983 332.5 995.426 332.5 1005.5 342.574 1005.5 355 1005.5 367.426 995.426 377.5 983 377.5 970.574 377.5 960.5 367.426 960.5 355Z" stroke="#2F528F" stroke-width="3" stroke-miterlimit="8" fill="#4472C4" fill-rule="evenodd"/><path d="M823.5 287C823.5 274.574 833.574 264.5 846 264.5 858.426 264.5 868.5 274.574 868.5 287 868.5 299.426 858.426 309.5 846 309.5 833.574 309.5 823.5 299.426 823.5 287Z" stroke="#2F528F" stroke-width="3" stroke-miterlimit="8" fill="none" fill-rule="evenodd"/><path d="M891.5 354C891.5 341.574 901.797 331.5 914.5 331.5 927.203 331.5 937.5 341.574 937.5 354 937.5 366.426 927.203 376.5 914.5 376.5 901.797 376.5 891.5 366.426 891.5 354Z" stroke="#2F528F" stroke-width="3" stroke-miterlimit="8" fill="#4472C4" fill-rule="evenodd"/><path d="M823.5 354C823.5 341.574 833.574 331.5 846 331.5 858.426 331.5 868.5 341.574 868.5 354 868.5 366.426 858.426 376.5 846 376.5 833.574 376.5 823.5 366.426 823.5 354Z" stroke="#2F528F" stroke-width="3" stroke-miterlimit="8" fill="none" fill-rule="evenodd"/><path d="M1097.5 287C1097.5 274.574 1107.57 264.5 1120 264.5 1132.43 264.5 1142.5 274.574 1142.5 287 1142.5 299.426 1132.43 309.5 1120 309.5 1107.57 309.5 1097.5 299.426 1097.5 287Z" stroke="#2F528F" stroke-width="3" stroke-miterlimit="8" fill="none" fill-rule="evenodd"/><path d="M1028.5 354C1028.5 341.574 1038.8 331.5 1051.5 331.5 1064.2 331.5 1074.5 341.574 1074.5 354 1074.5 366.426 1064.2 376.5 1051.5 376.5 1038.8 376.5 1028.5 366.426 1028.5 354Z" stroke="#2F528F" stroke-width="3" stroke-miterlimit="8" fill="#4472C4" fill-rule="evenodd"/><path d="M1097.5 354C1097.5 341.574 1107.57 331.5 1120 331.5 1132.43 331.5 1142.5 341.574 1142.5 354 1142.5 366.426 1132.43 376.5 1120 376.5 1107.57 376.5 1097.5 366.426 1097.5 354Z" stroke="#2F528F" stroke-width="3" stroke-miterlimit="8" fill="none" fill-rule="evenodd"/><path d="M560.5 420C560.5 407.574 570.797 397.5 583.5 397.5 596.203 397.5 606.5 407.574 606.5 420 606.5 432.426 596.203 442.5 583.5 442.5 570.797 442.5 560.5 432.426 560.5 420Z" stroke="#2F528F" stroke-width="3" stroke-miterlimit="8" fill="#ED7D31" fill-rule="evenodd"/><path d="M492.5 419.5C492.5 406.798 502.574 396.5 515 396.5 527.426 396.5 537.5 406.798 537.5 419.5 537.5 432.203 527.426 442.5 515 442.5 502.574 442.5 492.5 432.203 492.5 419.5Z" stroke="#2F528F" stroke-width="3" stroke-miterlimit="8" fill="#4472C4" fill-rule="evenodd"/><path d="M629.5 419.5C629.5 406.798 639.574 396.5 652 396.5 664.426 396.5 674.5 406.798 674.5 419.5 674.5 432.203 664.426 442.5 652 442.5 639.574 442.5 629.5 432.203 629.5 419.5Z" stroke="#2F528F" stroke-width="3" stroke-miterlimit="8" fill="#4472C4" fill-rule="evenodd"/><path d="M560.5 486.5C560.5 473.798 570.797 463.5 583.5 463.5 596.203 463.5 606.5 473.798 606.5 486.5 606.5 499.203 596.203 509.5 583.5 509.5 570.797 509.5 560.5 499.203 560.5 486.5Z" stroke="#2F528F" stroke-width="3" stroke-miterlimit="8" fill="#4472C4" fill-rule="evenodd"/><path d="M492.5 486.5C492.5 473.798 502.574 463.5 515 463.5 527.426 463.5 537.5 473.798 537.5 486.5 537.5 499.203 527.426 509.5 515 509.5 502.574 509.5 492.5 499.203 492.5 486.5Z" stroke="#2F528F" stroke-width="3" stroke-miterlimit="8" fill="none" fill-rule="evenodd"/><path d="M629.5 486.5C629.5 473.798 639.574 463.5 652 463.5 664.426 463.5 674.5 473.798 674.5 486.5 674.5 499.203 664.426 509.5 652 509.5 639.574 509.5 629.5 499.203 629.5 486.5Z" stroke="#2F528F" stroke-width="3" stroke-miterlimit="8" fill="none" fill-rule="evenodd"/><path d="M423.5 419.5C423.5 406.798 433.798 396.5 446.5 396.5 459.203 396.5 469.5 406.798 469.5 419.5 469.5 432.203 459.203 442.5 446.5 442.5 433.798 442.5 423.5 432.203 423.5 419.5Z" stroke="#2F528F" stroke-width="3" stroke-miterlimit="8" fill="none" fill-rule="evenodd"/><path d="M697.5 419.5C697.5 406.798 707.797 396.5 720.5 396.5 733.203 396.5 743.5 406.798 743.5 419.5 743.5 432.203 733.203 442.5 720.5 442.5 707.797 442.5 697.5 432.203 697.5 419.5Z" stroke="#2F528F" stroke-width="3" stroke-miterlimit="8" fill="none" fill-rule="evenodd"/><path d="M560.5 553C560.5 540.574 570.797 530.5 583.5 530.5 596.203 530.5 606.5 540.574 606.5 553 606.5 565.426 596.203 575.5 583.5 575.5 570.797 575.5 560.5 565.426 560.5 553Z" stroke="#2F528F" stroke-width="3" stroke-miterlimit="8" fill="none" fill-rule="evenodd"/><path d="M423.5 485.5C423.5 472.798 433.798 462.5 446.5 462.5 459.203 462.5 469.5 472.798 469.5 485.5 469.5 498.203 459.203 508.5 446.5 508.5 433.798 508.5 423.5 498.203 423.5 485.5Z" stroke="#2F528F" stroke-width="3" stroke-miterlimit="8" fill="none" fill-rule="evenodd"/><path d="M492.5 552.5C492.5 539.797 502.574 529.5 515 529.5 527.426 529.5 537.5 539.797 537.5 552.5 537.5 565.203 527.426 575.5 515 575.5 502.574 575.5 492.5 565.203 492.5 552.5Z" stroke="#2F528F" stroke-width="3" stroke-miterlimit="8" fill="none" fill-rule="evenodd"/><path d="M423.5 552.5C423.5 539.797 433.798 529.5 446.5 529.5 459.203 529.5 469.5 539.797 469.5 552.5 469.5 565.203 459.203 575.5 446.5 575.5 433.798 575.5 423.5 565.203 423.5 552.5Z" stroke="#2F528F" stroke-width="3" stroke-miterlimit="8" fill="none" fill-rule="evenodd"/><path d="M697.5 485.5C697.5 472.798 707.797 462.5 720.5 462.5 733.203 462.5 743.5 472.798 743.5 485.5 743.5 498.203 733.203 508.5 720.5 508.5 707.797 508.5 697.5 498.203 697.5 485.5Z" stroke="#2F528F" stroke-width="3" stroke-miterlimit="8" fill="none" fill-rule="evenodd"/><path d="M629.5 552.5C629.5 539.797 639.574 529.5 652 529.5 664.426 529.5 674.5 539.797 674.5 552.5 674.5 565.203 664.426 575.5 652 575.5 639.574 575.5 629.5 565.203 629.5 552.5Z" stroke="#2F528F" stroke-width="3" stroke-miterlimit="8" fill="none" fill-rule="evenodd"/><path d="M697.5 552.5C697.5 539.797 707.797 529.5 720.5 529.5 733.203 529.5 743.5 539.797 743.5 552.5 743.5 565.203 733.203 575.5 720.5 575.5 707.797 575.5 697.5 565.203 697.5 552.5Z" stroke="#2F528F" stroke-width="3" stroke-miterlimit="8" fill="none" fill-rule="evenodd"/><path d="M560.5 288C560.5 275.574 570.574 265.5 583 265.5 595.426 265.5 605.5 275.574 605.5 288 605.5 300.426 595.426 310.5 583 310.5 570.574 310.5 560.5 300.426 560.5 288Z" stroke="#2F528F" stroke-width="3" stroke-miterlimit="8" fill="none" fill-rule="evenodd"/><path d="M492.5 288C492.5 275.574 502.574 265.5 515 265.5 527.426 265.5 537.5 275.574 537.5 288 537.5 300.426 527.426 310.5 515 310.5 502.574 310.5 492.5 300.426 492.5 288Z" stroke="#2F528F" stroke-width="3" stroke-miterlimit="8" fill="none" fill-rule="evenodd"/><path d="M629.5 288C629.5 275.574 639.574 265.5 652 265.5 664.426 265.5 674.5 275.574 674.5 288 674.5 300.426 664.426 310.5 652 310.5 639.574 310.5 629.5 300.426 629.5 288Z" stroke="#2F528F" stroke-width="3" stroke-miterlimit="8" fill="none" fill-rule="evenodd"/><path d="M560.5 354C560.5 341.574 570.797 331.5 583.5 331.5 596.203 331.5 606.5 341.574 606.5 354 606.5 366.426 596.203 376.5 583.5 376.5 570.797 376.5 560.5 366.426 560.5 354Z" stroke="#2F528F" stroke-width="3" stroke-miterlimit="8" fill="#4472C4" fill-rule="evenodd"/><path d="M423.5 287C423.5 274.574 433.574 264.5 446 264.5 458.426 264.5 468.5 274.574 468.5 287 468.5 299.426 458.426 309.5 446 309.5 433.574 309.5 423.5 299.426 423.5 287Z" stroke="#2F528F" stroke-width="3" stroke-miterlimit="8" fill="none" fill-rule="evenodd"/><path d="M492.5 354C492.5 341.574 502.574 331.5 515 331.5 527.426 331.5 537.5 341.574 537.5 354 537.5 366.426 527.426 376.5 515 376.5 502.574 376.5 492.5 366.426 492.5 354Z" stroke="#2F528F" stroke-width="3" stroke-miterlimit="8" fill="none" fill-rule="evenodd"/><path d="M423.5 354C423.5 341.574 433.574 331.5 446 331.5 458.426 331.5 468.5 341.574 468.5 354 468.5 366.426 458.426 376.5 446 376.5 433.574 376.5 423.5 366.426 423.5 354Z" stroke="#2F528F" stroke-width="3" stroke-miterlimit="8" fill="none" fill-rule="evenodd"/><path d="M697.5 287C697.5 274.574 707.574 264.5 720 264.5 732.426 264.5 742.5 274.574 742.5 287 742.5 299.426 732.426 309.5 720 309.5 707.574 309.5 697.5 299.426 697.5 287Z" stroke="#2F528F" stroke-width="3" stroke-miterlimit="8" fill="none" fill-rule="evenodd"/><path d="M629.5 354C629.5 341.574 639.574 331.5 652 331.5 664.426 331.5 674.5 341.574 674.5 354 674.5 366.426 664.426 376.5 652 376.5 639.574 376.5 629.5 366.426 629.5 354Z" stroke="#2F528F" stroke-width="3" stroke-miterlimit="8" fill="none" fill-rule="evenodd"/><path d="M697.5 354C697.5 341.574 707.574 331.5 720 331.5 732.426 331.5 742.5 341.574 742.5 354 742.5 366.426 732.426 376.5 720 376.5 707.574 376.5 697.5 366.426 697.5 354Z" stroke="#2F528F" stroke-width="3" stroke-miterlimit="8" fill="none" fill-rule="evenodd"/><path d="M160.5 421.5C160.5 408.798 170.574 398.5 183 398.5 195.426 398.5 205.5 408.798 205.5 421.5 205.5 434.203 195.426 444.5 183 444.5 170.574 444.5 160.5 434.203 160.5 421.5Z" stroke="#2F528F" stroke-width="3" stroke-miterlimit="8" fill="#ED7D31" fill-rule="evenodd"/><path d="M92.5001 420.5C92.5001 407.798 102.574 397.5 115 397.5 127.426 397.5 137.5 407.798 137.5 420.5 137.5 433.203 127.426 443.5 115 443.5 102.574 443.5 92.5001 433.203 92.5001 420.5Z" stroke="#2F528F" stroke-width="3" stroke-miterlimit="8" fill="none" fill-rule="evenodd"/><path d="M229.5 420.5C229.5 407.798 239.574 397.5 252 397.5 264.426 397.5 274.5 407.798 274.5 420.5 274.5 433.203 264.426 443.5 252 443.5 239.574 443.5 229.5 433.203 229.5 420.5Z" stroke="#2F528F" stroke-width="3" stroke-miterlimit="8" fill="none" fill-rule="evenodd"/><path d="M160.5 488C160.5 475.574 170.574 465.5 183 465.5 195.426 465.5 205.5 475.574 205.5 488 205.5 500.426 195.426 510.5 183 510.5 170.574 510.5 160.5 500.426 160.5 488Z" stroke="#2F528F" stroke-width="3" stroke-miterlimit="8" fill="none" fill-rule="evenodd"/><path d="M92.5001 488C92.5001 475.574 102.574 465.5 115 465.5 127.426 465.5 137.5 475.574 137.5 488 137.5 500.426 127.426 510.5 115 510.5 102.574 510.5 92.5001 500.426 92.5001 488Z" stroke="#2F528F" stroke-width="3" stroke-miterlimit="8" fill="none" fill-rule="evenodd"/><path d="M229.5 488C229.5 475.574 239.574 465.5 252 465.5 264.426 465.5 274.5 475.574 274.5 488 274.5 500.426 264.426 510.5 252 510.5 239.574 510.5 229.5 500.426 229.5 488Z" stroke="#2F528F" stroke-width="3" stroke-miterlimit="8" fill="none" fill-rule="evenodd"/><path d="M23.5001 420.5C23.5001 407.798 33.5736 397.5 46.0001 397.5 58.4265 397.5 68.5001 407.798 68.5001 420.5 68.5001 433.203 58.4265 443.5 46.0001 443.5 33.5736 443.5 23.5001 433.203 23.5001 420.5Z" stroke="#2F528F" stroke-width="3" stroke-miterlimit="8" fill="none" fill-rule="evenodd"/><path d="M297.5 420.5C297.5 407.798 307.574 397.5 320 397.5 332.426 397.5 342.5 407.798 342.5 420.5 342.5 433.203 332.426 443.5 320 443.5 307.574 443.5 297.5 433.203 297.5 420.5Z" stroke="#2F528F" stroke-width="3" stroke-miterlimit="8" fill="none" fill-rule="evenodd"/><path d="M160.5 554C160.5 541.574 170.798 531.5 183.5 531.5 196.203 531.5 206.5 541.574 206.5 554 206.5 566.426 196.203 576.5 183.5 576.5 170.798 576.5 160.5 566.426 160.5 554Z" stroke="#2F528F" stroke-width="3" stroke-miterlimit="8" fill="none" fill-rule="evenodd"/><path d="M23.5001 486.5C23.5001 473.798 33.5736 463.5 46.0001 463.5 58.4265 463.5 68.5001 473.798 68.5001 486.5 68.5001 499.203 58.4265 509.5 46.0001 509.5 33.5736 509.5 23.5001 499.203 23.5001 486.5Z" stroke="#2F528F" stroke-width="3" stroke-miterlimit="8" fill="none" fill-rule="evenodd"/><path d="M92.5001 554C92.5001 541.574 102.574 531.5 115 531.5 127.426 531.5 137.5 541.574 137.5 554 137.5 566.426 127.426 576.5 115 576.5 102.574 576.5 92.5001 566.426 92.5001 554Z" stroke="#2F528F" stroke-width="3" stroke-miterlimit="8" fill="none" fill-rule="evenodd"/><path d="M23.5001 554C23.5001 541.574 33.5736 531.5 46.0001 531.5 58.4265 531.5 68.5001 541.574 68.5001 554 68.5001 566.426 58.4265 576.5 46.0001 576.5 33.5736 576.5 23.5001 566.426 23.5001 554Z" stroke="#2F528F" stroke-width="3" stroke-miterlimit="8" fill="none" fill-rule="evenodd"/><path d="M297.5 486.5C297.5 473.798 307.574 463.5 320 463.5 332.426 463.5 342.5 473.798 342.5 486.5 342.5 499.203 332.426 509.5 320 509.5 307.574 509.5 297.5 499.203 297.5 486.5Z" stroke="#2F528F" stroke-width="3" stroke-miterlimit="8" fill="none" fill-rule="evenodd"/><path d="M229.5 554C229.5 541.574 239.574 531.5 252 531.5 264.426 531.5 274.5 541.574 274.5 554 274.5 566.426 264.426 576.5 252 576.5 239.574 576.5 229.5 566.426 229.5 554Z" stroke="#2F528F" stroke-width="3" stroke-miterlimit="8" fill="none" fill-rule="evenodd"/><path d="M297.5 554C297.5 541.574 307.574 531.5 320 531.5 332.426 531.5 342.5 541.574 342.5 554 342.5 566.426 332.426 576.5 320 576.5 307.574 576.5 297.5 566.426 297.5 554Z" stroke="#2F528F" stroke-width="3" stroke-miterlimit="8" fill="none" fill-rule="evenodd"/><path d="M160.5 289C160.5 276.574 170.574 266.5 183 266.5 195.426 266.5 205.5 276.574 205.5 289 205.5 301.426 195.426 311.5 183 311.5 170.574 311.5 160.5 301.426 160.5 289Z" stroke="#2F528F" stroke-width="3" stroke-miterlimit="8" fill="none" fill-rule="evenodd"/><path d="M91.5001 289C91.5001 276.574 101.798 266.5 114.5 266.5 127.203 266.5 137.5 276.574 137.5 289 137.5 301.426 127.203 311.5 114.5 311.5 101.798 311.5 91.5001 301.426 91.5001 289Z" stroke="#2F528F" stroke-width="3" stroke-miterlimit="8" fill="none" fill-rule="evenodd"/><path d="M228.5 289C228.5 276.574 238.798 266.5 251.5 266.5 264.203 266.5 274.5 276.574 274.5 289 274.5 301.426 264.203 311.5 251.5 311.5 238.798 311.5 228.5 301.426 228.5 289Z" stroke="#2F528F" stroke-width="3" stroke-miterlimit="8" fill="none" fill-rule="evenodd"/><path d="M160.5 355.5C160.5 342.798 170.574 332.5 183 332.5 195.426 332.5 205.5 342.798 205.5 355.5 205.5 368.203 195.426 378.5 183 378.5 170.574 378.5 160.5 368.203 160.5 355.5Z" stroke="#2F528F" stroke-width="3" stroke-miterlimit="8" fill="none" fill-rule="evenodd"/><path d="M23.5001 288C23.5001 275.574 33.5736 265.5 46.0001 265.5 58.4265 265.5 68.5001 275.574 68.5001 288 68.5001 300.426 58.4265 310.5 46.0001 310.5 33.5736 310.5 23.5001 300.426 23.5001 288Z" stroke="#2F528F" stroke-width="3" stroke-miterlimit="8" fill="none" fill-rule="evenodd"/><path d="M91.5001 355C91.5001 342.574 101.798 332.5 114.5 332.5 127.203 332.5 137.5 342.574 137.5 355 137.5 367.426 127.203 377.5 114.5 377.5 101.798 377.5 91.5001 367.426 91.5001 355Z" stroke="#2F528F" stroke-width="3" stroke-miterlimit="8" fill="none" fill-rule="evenodd"/><path d="M23.5001 355C23.5001 342.574 33.5736 332.5 46.0001 332.5 58.4265 332.5 68.5001 342.574 68.5001 355 68.5001 367.426 58.4265 377.5 46.0001 377.5 33.5736 377.5 23.5001 367.426 23.5001 355Z" stroke="#2F528F" stroke-width="3" stroke-miterlimit="8" fill="none" fill-rule="evenodd"/><path d="M297.5 288C297.5 275.574 307.574 265.5 320 265.5 332.426 265.5 342.5 275.574 342.5 288 342.5 300.426 332.426 310.5 320 310.5 307.574 310.5 297.5 300.426 297.5 288Z" stroke="#2F528F" stroke-width="3" stroke-miterlimit="8" fill="none" fill-rule="evenodd"/><path d="M228.5 355C228.5 342.574 238.798 332.5 251.5 332.5 264.203 332.5 274.5 342.574 274.5 355 274.5 367.426 264.203 377.5 251.5 377.5 238.798 377.5 228.5 367.426 228.5 355Z" stroke="#2F528F" stroke-width="3" stroke-miterlimit="8" fill="none" fill-rule="evenodd"/><path d="M297.5 355C297.5 342.574 307.574 332.5 320 332.5 332.426 332.5 342.5 342.574 342.5 355 342.5 367.426 332.426 377.5 320 377.5 307.574 377.5 297.5 367.426 297.5 355Z" stroke="#2F528F" stroke-width="3" stroke-miterlimit="8" fill="none" fill-rule="evenodd"/></g></svg>