<svg width="754" height="168" xmlns="http://www.w3.org/2000/svg" xmlns:xlink="http://www.w3.org/1999/xlink" overflow="hidden"><defs><clipPath id="clip0"><path d="M1358 236 2112 236 2112 404 1358 404Z" fill-rule="evenodd" clip-rule="evenodd"/></clipPath></defs><g clip-path="url(#clip0)" transform="translate(-1358 -236)"><rect x="0" y="0" width="13" height="14" stroke="#2F528F" stroke-miterlimit="8" fill="#4472C4" transform="matrix(-1 -8.74228e-08 -8.74228e-08 1 1380.5 370.5)"/><rect x="0" y="0" width="27" height="27" stroke="#2F528F" stroke-miterlimit="8" fill="none" transform="matrix(-1 -8.74228e-08 -8.74228e-08 1 1387.5 363.5)"/><text font-family="Calibri,Calibri_MSFontService,sans-serif" font-weight="400" font-size="27" transform="translate(1855.91 270)">No builder split<tspan x="1.51379" y="110">Split on </tspan><tspan x="89.1804" y="110">RX</tspan><tspan x="0" y="73">Split on T</tspan><tspan x="100.667" y="73">X</tspan><tspan x="0" y="36">Split on </tspan><tspan x="87.6666" y="36">Frequency</tspan></text><rect x="0" y="0" width="461" height="33" stroke="#2F528F" stroke-miterlimit="8" fill="none" transform="matrix(-1 -8.74228e-08 -8.74228e-08 1 1820.5 244.5)"/><rect x="1366.5" y="254.5" width="13" height="14" stroke="#2F528F" stroke-miterlimit="8" fill="#4472C4"/><rect x="1383.5" y="254.5" width="13" height="14" stroke="#2F528F" stroke-miterlimit="8" fill="#4472C4"/><rect x="1401.5" y="254.5" width="13" height="14" stroke="#2F528F" stroke-miterlimit="8" fill="#4472C4"/><rect x="1418.5" y="254.5" width="13" height="14" stroke="#2F528F" stroke-miterlimit="8" fill="#4472C4"/><rect x="1442.5" y="254.5" width="13" height="14" stroke="#2F528F" stroke-miterlimit="8" fill="#4472C4"/><rect x="1460.5" y="254.5" width="13" height="14" stroke="#2F528F" stroke-miterlimit="8" fill="#4472C4"/><rect x="1477.5" y="254.5" width="13" height="14" stroke="#2F528F" stroke-miterlimit="8" fill="#4472C4"/><rect x="1494.5" y="254.5" width="13" height="14" stroke="#2F528F" stroke-miterlimit="8" fill="#4472C4"/><rect x="1519.5" y="254.5" width="13" height="14" stroke="#2F528F" stroke-miterlimit="8" fill="#4472C4"/><rect x="1536.5" y="254.5" width="13" height="14" stroke="#2F528F" stroke-miterlimit="8" fill="#4472C4"/><rect x="1553.5" y="254.5" width="13" height="14" stroke="#2F528F" stroke-miterlimit="8" fill="#4472C4"/><rect x="1570.5" y="254.5" width="13" height="14" stroke="#2F528F" stroke-miterlimit="8" fill="#4472C4"/><rect x="1597.5" y="254.5" width="13" height="14" stroke="#2F528F" stroke-miterlimit="8" fill="#4472C4"/><rect x="1614.5" y="254.5" width="13" height="14" stroke="#2F528F" stroke-miterlimit="8" fill="#4472C4"/><rect x="1632.5" y="254.5" width="13" height="14" stroke="#2F528F" stroke-miterlimit="8" fill="#4472C4"/><rect x="1649.5" y="254.5" width="13" height="14" stroke="#2F528F" stroke-miterlimit="8" fill="#4472C4"/><rect x="1673.5" y="254.5" width="13" height="14" stroke="#2F528F" stroke-miterlimit="8" fill="#4472C4"/><rect x="1691.5" y="254.5" width="13" height="14" stroke="#2F528F" stroke-miterlimit="8" fill="#4472C4"/><rect x="1708.5" y="254.5" width="13" height="14" stroke="#2F528F" stroke-miterlimit="8" fill="#4472C4"/><rect x="1725.5" y="254.5" width="13" height="14" stroke="#2F528F" stroke-miterlimit="8" fill="#4472C4"/><rect x="1750.5" y="254.5" width="13" height="14" stroke="#2F528F" stroke-miterlimit="8" fill="#4472C4"/><rect x="1767.5" y="254.5" width="13" height="14" stroke="#2F528F" stroke-miterlimit="8" fill="#4472C4"/><rect x="1784.5" y="254.5" width="13" height="14" stroke="#2F528F" stroke-miterlimit="8" fill="#4472C4"/><rect x="1801.5" y="254.5" width="13" height="14" stroke="#2F528F" stroke-miterlimit="8" fill="#4472C4"/><rect x="0" y="0" width="232" height="32" stroke="#2F528F" stroke-miterlimit="8" fill="none" transform="matrix(-1 -8.74228e-08 -8.74228e-08 1 1592.5 284.5)"/><rect x="1366.5" y="292.5" width="13" height="14" stroke="#2F528F" stroke-miterlimit="8" fill="#4472C4"/><rect x="1383.5" y="292.5" width="13" height="14" stroke="#2F528F" stroke-miterlimit="8" fill="#4472C4"/><rect x="1400.5" y="292.5" width="13" height="14" stroke="#2F528F" stroke-miterlimit="8" fill="#4472C4"/><rect x="1417.5" y="292.5" width="13" height="14" stroke="#2F528F" stroke-miterlimit="8" fill="#4472C4"/><rect x="1442.5" y="292.5" width="13" height="14" stroke="#2F528F" stroke-miterlimit="8" fill="#4472C4"/><rect x="1459.5" y="292.5" width="13" height="14" stroke="#2F528F" stroke-miterlimit="8" fill="#4472C4"/><rect x="1476.5" y="292.5" width="13" height="14" stroke="#2F528F" stroke-miterlimit="8" fill="#4472C4"/><rect x="1494.5" y="292.5" width="13" height="14" stroke="#2F528F" stroke-miterlimit="8" fill="#4472C4"/><rect x="1518.5" y="292.5" width="13" height="14" stroke="#2F528F" stroke-miterlimit="8" fill="#4472C4"/><rect x="1535.5" y="292.5" width="13" height="14" stroke="#2F528F" stroke-miterlimit="8" fill="#4472C4"/><rect x="1553.5" y="292.5" width="13" height="14" stroke="#2F528F" stroke-miterlimit="8" fill="#4472C4"/><rect x="1570.5" y="292.5" width="13" height="14" stroke="#2F528F" stroke-miterlimit="8" fill="#4472C4"/><rect x="0" y="0" width="78" height="32" stroke="#2F528F" stroke-miterlimit="8" fill="none" transform="matrix(-1 -8.74228e-08 -8.74228e-08 1 1437.5 322.5)"/><rect x="1366.5" y="331.5" width="13" height="14" stroke="#2F528F" stroke-miterlimit="8" fill="#4472C4"/><rect x="1383.5" y="331.5" width="13" height="14" stroke="#2F528F" stroke-miterlimit="8" fill="#4472C4"/><rect x="1400.5" y="331.5" width="13" height="14" stroke="#2F528F" stroke-miterlimit="8" fill="#4472C4"/><rect x="1417.5" y="331.5" width="13" height="14" stroke="#2F528F" stroke-miterlimit="8" fill="#4472C4"/></g></svg>