<svg width="700" height="210" xmlns="http://www.w3.org/2000/svg" xmlns:xlink="http://www.w3.org/1999/xlink" overflow="hidden"><defs><clipPath id="clip0"><path d="M1357 30 2057 30 2057 240 1357 240Z" fill-rule="evenodd" clip-rule="evenodd"/></clipPath></defs><g clip-path="url(#clip0)" transform="translate(-1357 -30)"><rect x="1366.5" y="137.5" width="13" height="14" stroke="#2F528F" stroke-miterlimit="8" fill="#4472C4"/><rect x="1383.5" y="137.5" width="13" height="14" stroke="#2F528F" stroke-miterlimit="8" fill="#4472C4"/><rect x="1401.5" y="137.5" width="13" height="14" stroke="#2F528F" stroke-miterlimit="8" fill="#4472C4"/><rect x="1418.5" y="137.5" width="13" height="14" stroke="#2F528F" stroke-miterlimit="8" fill="#4472C4"/><rect x="1366.5" y="156.5" width="13" height="14" stroke="#2F528F" stroke-miterlimit="8" fill="#4472C4"/><rect x="1383.5" y="156.5" width="13" height="14" stroke="#2F528F" stroke-miterlimit="8" fill="#4472C4"/><rect x="1401.5" y="156.5" width="13" height="14" stroke="#2F528F" stroke-miterlimit="8" fill="#4472C4"/><rect x="1418.5" y="156.5" width="13" height="14" stroke="#2F528F" stroke-miterlimit="8" fill="#4472C4"/><rect x="1366.5" y="176.5" width="13" height="14" stroke="#2F528F" stroke-miterlimit="8" fill="#4472C4"/><rect x="1383.5" y="176.5" width="13" height="14" stroke="#2F528F" stroke-miterlimit="8" fill="#4472C4"/><rect x="1401.5" y="176.5" width="13" height="14" stroke="#2F528F" stroke-miterlimit="8" fill="#4472C4"/><rect x="1418.5" y="176.5" width="13" height="14" stroke="#2F528F" stroke-miterlimit="8" fill="#4472C4"/><rect x="1366.5" y="195.5" width="13" height="14" stroke="#2F528F" stroke-miterlimit="8" fill="#4472C4"/><rect x="1383.5" y="195.5" width="13" height="14" stroke="#2F528F" stroke-miterlimit="8" fill="#4472C4"/><rect x="1401.5" y="195.5" width="13" height="14" stroke="#2F528F" stroke-miterlimit="8" fill="#4472C4"/><rect x="1418.5" y="195.5" width="13" height="14" stroke="#2F528F" stroke-miterlimit="8" fill="#4472C4"/><rect x="1366.5" y="215.5" width="13" height="14" stroke="#2F528F" stroke-miterlimit="8" fill="#4472C4"/><rect x="1383.5" y="215.5" width="13" height="14" stroke="#2F528F" stroke-miterlimit="8" fill="#4472C4"/><rect x="1401.5" y="215.5" width="13" height="14" stroke="#2F528F" stroke-miterlimit="8" fill="#4472C4"/><rect x="1418.5" y="215.5" width="13" height="14" stroke="#2F528F" stroke-miterlimit="8" fill="#4472C4"/><text font-family="Calibri,Calibri_MSFontService,sans-serif" font-weight="400" font-size="15" transform="matrix(-1.83697e-16 -1 1 -1.83697e-16 1376.44 132)">RX 1<tspan x="-3.25264e-15" y="17.7065">RX 2</tspan><tspan x="-6.3828e-15" y="34.7463">RX 3</tspan><tspan x="-9.63546e-15" y="52.453">RX 4</tspan></text><path d="M1365.5 105.5C1365.5 101.634 1368.44 98.5 1372.06 98.5L1391.94 98.5001C1395.56 98.5001 1398.5 95.3661 1398.5 91.5001 1398.5 95.3661 1401.44 98.5001 1405.06 98.5001L1424.94 98.5001C1428.56 98.5001 1431.5 101.634 1431.5 105.5" stroke="#4472C4" stroke-miterlimit="8" fill="none" fill-rule="evenodd"/><text font-family="Calibri,Calibri_MSFontService,sans-serif" font-weight="400" font-size="16" transform="translate(1384.37 83)">TX 1</text><rect x="1442.5" y="137.5" width="13" height="14" stroke="#2F528F" stroke-miterlimit="8" fill="#4472C4"/><rect x="1460.5" y="137.5" width="13" height="14" stroke="#2F528F" stroke-miterlimit="8" fill="#4472C4"/><rect x="1477.5" y="137.5" width="13" height="14" stroke="#2F528F" stroke-miterlimit="8" fill="#4472C4"/><rect x="1494.5" y="137.5" width="13" height="14" stroke="#2F528F" stroke-miterlimit="8" fill="#4472C4"/><rect x="1442.5" y="156.5" width="13" height="14" stroke="#2F528F" stroke-miterlimit="8" fill="#4472C4"/><rect x="1460.5" y="156.5" width="13" height="14" stroke="#2F528F" stroke-miterlimit="8" fill="#4472C4"/><rect x="1477.5" y="156.5" width="13" height="14" stroke="#2F528F" stroke-miterlimit="8" fill="#4472C4"/><rect x="1494.5" y="156.5" width="13" height="14" stroke="#2F528F" stroke-miterlimit="8" fill="#4472C4"/><rect x="1442.5" y="176.5" width="13" height="14" stroke="#2F528F" stroke-miterlimit="8" fill="#4472C4"/><rect x="1460.5" y="176.5" width="13" height="14" stroke="#2F528F" stroke-miterlimit="8" fill="#4472C4"/><rect x="1477.5" y="176.5" width="13" height="14" stroke="#2F528F" stroke-miterlimit="8" fill="#4472C4"/><rect x="1494.5" y="176.5" width="13" height="14" stroke="#2F528F" stroke-miterlimit="8" fill="#4472C4"/><rect x="1442.5" y="195.5" width="13" height="14" stroke="#2F528F" stroke-miterlimit="8" fill="#4472C4"/><rect x="1460.5" y="195.5" width="13" height="14" stroke="#2F528F" stroke-miterlimit="8" fill="#4472C4"/><rect x="1477.5" y="195.5" width="13" height="14" stroke="#2F528F" stroke-miterlimit="8" fill="#4472C4"/><rect x="1494.5" y="195.5" width="13" height="14" stroke="#2F528F" stroke-miterlimit="8" fill="#4472C4"/><rect x="1442.5" y="215.5" width="13" height="14" stroke="#2F528F" stroke-miterlimit="8" fill="#4472C4"/><rect x="1460.5" y="215.5" width="13" height="14" stroke="#2F528F" stroke-miterlimit="8" fill="#4472C4"/><rect x="1477.5" y="215.5" width="13" height="14" stroke="#2F528F" stroke-miterlimit="8" fill="#4472C4"/><rect x="1494.5" y="215.5" width="13" height="14" stroke="#2F528F" stroke-miterlimit="8" fill="#4472C4"/><text font-family="Calibri,Calibri_MSFontService,sans-serif" font-weight="400" font-size="15" transform="matrix(-1.83697e-16 -1 1 -1.83697e-16 1452.68 132)">RX 1<tspan x="-3.25266e-15" y="17.7067">RX 2</tspan><tspan x="-6.38282e-15" y="34.7465">RX 3</tspan><tspan x="-9.63548e-15" y="52.4531">RX 4</tspan></text><path d="M1441.5 105.5C1441.5 101.634 1444.44 98.5 1448.06 98.5L1467.94 98.5001C1471.56 98.5001 1474.5 95.3661 1474.5 91.5001 1474.5 95.3661 1477.44 98.5001 1481.06 98.5001L1500.94 98.5001C1504.56 98.5001 1507.5 101.634 1507.5 105.5" stroke="#4472C4" stroke-miterlimit="8" fill="none" fill-rule="evenodd"/><text font-family="Calibri,Calibri_MSFontService,sans-serif" font-weight="400" font-size="16" transform="translate(1460.61 83)">TX 2</text><rect x="1519.5" y="137.5" width="13" height="14" stroke="#2F528F" stroke-miterlimit="8" fill="#4472C4"/><rect x="1536.5" y="137.5" width="13" height="14" stroke="#2F528F" stroke-miterlimit="8" fill="#4472C4"/><rect x="1553.5" y="137.5" width="13" height="14" stroke="#2F528F" stroke-miterlimit="8" fill="#4472C4"/><rect x="1570.5" y="137.5" width="13" height="14" stroke="#2F528F" stroke-miterlimit="8" fill="#4472C4"/><rect x="1519.5" y="156.5" width="13" height="14" stroke="#2F528F" stroke-miterlimit="8" fill="#4472C4"/><rect x="1536.5" y="156.5" width="13" height="14" stroke="#2F528F" stroke-miterlimit="8" fill="#4472C4"/><rect x="1553.5" y="156.5" width="13" height="14" stroke="#2F528F" stroke-miterlimit="8" fill="#4472C4"/><rect x="1570.5" y="156.5" width="13" height="14" stroke="#2F528F" stroke-miterlimit="8" fill="#4472C4"/><rect x="1519.5" y="176.5" width="13" height="14" stroke="#2F528F" stroke-miterlimit="8" fill="#4472C4"/><rect x="1536.5" y="176.5" width="13" height="14" stroke="#2F528F" stroke-miterlimit="8" fill="#4472C4"/><rect x="1553.5" y="176.5" width="13" height="14" stroke="#2F528F" stroke-miterlimit="8" fill="#4472C4"/><rect x="1570.5" y="176.5" width="13" height="14" stroke="#2F528F" stroke-miterlimit="8" fill="#4472C4"/><rect x="1519.5" y="195.5" width="13" height="14" stroke="#2F528F" stroke-miterlimit="8" fill="#4472C4"/><rect x="1536.5" y="195.5" width="13" height="14" stroke="#2F528F" stroke-miterlimit="8" fill="#4472C4"/><rect x="1553.5" y="195.5" width="13" height="14" stroke="#2F528F" stroke-miterlimit="8" fill="#4472C4"/><rect x="1570.5" y="195.5" width="13" height="14" stroke="#2F528F" stroke-miterlimit="8" fill="#4472C4"/><rect x="1519.5" y="215.5" width="13" height="14" stroke="#2F528F" stroke-miterlimit="8" fill="#4472C4"/><rect x="1536.5" y="215.5" width="13" height="14" stroke="#2F528F" stroke-miterlimit="8" fill="#4472C4"/><rect x="1553.5" y="215.5" width="13" height="14" stroke="#2F528F" stroke-miterlimit="8" fill="#4472C4"/><rect x="1570.5" y="215.5" width="13" height="14" stroke="#2F528F" stroke-miterlimit="8" fill="#4472C4"/><text font-family="Calibri,Calibri_MSFontService,sans-serif" font-weight="400" font-size="15" transform="matrix(-1.83697e-16 -1 1 -1.83697e-16 1528.92 132)">RX 1<tspan x="-3.25264e-15" y="17.7065">RX 2</tspan><tspan x="-6.38282e-15" y="34.7465">RX 3</tspan><tspan x="-9.63546e-15" y="52.453">RX 4</tspan></text><path d="M1517.5 105.5C1517.5 101.634 1520.44 98.5 1524.06 98.5L1543.94 98.5001C1547.56 98.5001 1550.5 95.3661 1550.5 91.5001 1550.5 95.3661 1553.44 98.5001 1557.06 98.5001L1576.94 98.5001C1580.56 98.5001 1583.5 101.634 1583.5 105.5" stroke="#4472C4" stroke-miterlimit="8" fill="none" fill-rule="evenodd"/><text font-family="Calibri,Calibri_MSFontService,sans-serif" font-weight="400" font-size="16" transform="translate(1536.85 83)">TX 3</text><path d="M1364.5 75.5001C1364.5 67.7681 1365.92 61.5001 1367.68 61.5001L1582.32 61.5001C1584.08 61.5001 1585.5 67.7681 1585.5 75.5001" stroke="#4472C4" stroke-miterlimit="8" fill="none" fill-rule="evenodd"/><text font-family="Calibri,Calibri_MSFontService,sans-serif" font-weight="400" font-size="19" transform="translate(1448.14 53)">FREQ  1</text><rect x="1597.5" y="137.5" width="13" height="14" stroke="#2F528F" stroke-miterlimit="8" fill="#4472C4"/><rect x="1614.5" y="137.5" width="13" height="14" stroke="#2F528F" stroke-miterlimit="8" fill="#4472C4"/><rect x="1632.5" y="137.5" width="13" height="14" stroke="#2F528F" stroke-miterlimit="8" fill="#4472C4"/><rect x="1649.5" y="137.5" width="13" height="14" stroke="#2F528F" stroke-miterlimit="8" fill="#4472C4"/><rect x="1597.5" y="156.5" width="13" height="14" stroke="#2F528F" stroke-miterlimit="8" fill="#4472C4"/><rect x="1614.5" y="156.5" width="13" height="14" stroke="#2F528F" stroke-miterlimit="8" fill="#4472C4"/><rect x="1632.5" y="156.5" width="13" height="14" stroke="#2F528F" stroke-miterlimit="8" fill="#4472C4"/><rect x="1649.5" y="156.5" width="13" height="14" stroke="#2F528F" stroke-miterlimit="8" fill="#4472C4"/><rect x="1597.5" y="176.5" width="13" height="14" stroke="#2F528F" stroke-miterlimit="8" fill="#4472C4"/><rect x="1614.5" y="176.5" width="13" height="14" stroke="#2F528F" stroke-miterlimit="8" fill="#4472C4"/><rect x="1632.5" y="176.5" width="13" height="14" stroke="#2F528F" stroke-miterlimit="8" fill="#4472C4"/><rect x="1649.5" y="176.5" width="13" height="14" stroke="#2F528F" stroke-miterlimit="8" fill="#4472C4"/><rect x="1597.5" y="195.5" width="13" height="14" stroke="#2F528F" stroke-miterlimit="8" fill="#4472C4"/><rect x="1614.5" y="195.5" width="13" height="14" stroke="#2F528F" stroke-miterlimit="8" fill="#4472C4"/><rect x="1632.5" y="195.5" width="13" height="14" stroke="#2F528F" stroke-miterlimit="8" fill="#4472C4"/><rect x="1649.5" y="195.5" width="13" height="14" stroke="#2F528F" stroke-miterlimit="8" fill="#4472C4"/><rect x="1597.5" y="215.5" width="13" height="14" stroke="#2F528F" stroke-miterlimit="8" fill="#4472C4"/><rect x="1614.5" y="215.5" width="13" height="14" stroke="#2F528F" stroke-miterlimit="8" fill="#4472C4"/><rect x="1632.5" y="215.5" width="13" height="14" stroke="#2F528F" stroke-miterlimit="8" fill="#4472C4"/><rect x="1649.5" y="215.5" width="13" height="14" stroke="#2F528F" stroke-miterlimit="8" fill="#4472C4"/><text font-family="Calibri,Calibri_MSFontService,sans-serif" font-weight="400" font-size="15" transform="matrix(-1.83697e-16 -1 1 -1.83697e-16 1607.41 132)">RX 1<tspan x="-3.25264e-15" y="17.7065">RX 2</tspan><tspan x="-6.38282e-15" y="34.7465">RX 3</tspan><tspan x="-9.63546e-15" y="52.453">RX 4</tspan></text><path d="M1596.5 105.5C1596.5 101.634 1599.44 98.5 1603.06 98.5L1622.94 98.5001C1626.56 98.5001 1629.5 95.3661 1629.5 91.5001 1629.5 95.3661 1632.44 98.5001 1636.06 98.5001L1655.94 98.5001C1659.56 98.5001 1662.5 101.634 1662.5 105.5" stroke="#4472C4" stroke-miterlimit="8" fill="none" fill-rule="evenodd"/><text font-family="Calibri,Calibri_MSFontService,sans-serif" font-weight="400" font-size="16" transform="translate(1615.35 83)">TX 1</text><rect x="1673.5" y="137.5" width="13" height="14" stroke="#2F528F" stroke-miterlimit="8" fill="#4472C4"/><rect x="1691.5" y="137.5" width="13" height="14" stroke="#2F528F" stroke-miterlimit="8" fill="#4472C4"/><rect x="1708.5" y="137.5" width="13" height="14" stroke="#2F528F" stroke-miterlimit="8" fill="#4472C4"/><rect x="1725.5" y="137.5" width="13" height="14" stroke="#2F528F" stroke-miterlimit="8" fill="#4472C4"/><rect x="1673.5" y="156.5" width="13" height="14" stroke="#2F528F" stroke-miterlimit="8" fill="#4472C4"/><rect x="1691.5" y="156.5" width="13" height="14" stroke="#2F528F" stroke-miterlimit="8" fill="#4472C4"/><rect x="1708.5" y="156.5" width="13" height="14" stroke="#2F528F" stroke-miterlimit="8" fill="#4472C4"/><rect x="1725.5" y="156.5" width="13" height="14" stroke="#2F528F" stroke-miterlimit="8" fill="#4472C4"/><rect x="1673.5" y="176.5" width="13" height="14" stroke="#2F528F" stroke-miterlimit="8" fill="#4472C4"/><rect x="1691.5" y="176.5" width="13" height="14" stroke="#2F528F" stroke-miterlimit="8" fill="#4472C4"/><rect x="1708.5" y="176.5" width="13" height="14" stroke="#2F528F" stroke-miterlimit="8" fill="#4472C4"/><rect x="1725.5" y="176.5" width="13" height="14" stroke="#2F528F" stroke-miterlimit="8" fill="#4472C4"/><rect x="1673.5" y="195.5" width="13" height="14" stroke="#2F528F" stroke-miterlimit="8" fill="#4472C4"/><rect x="1691.5" y="195.5" width="13" height="14" stroke="#2F528F" stroke-miterlimit="8" fill="#4472C4"/><rect x="1708.5" y="195.5" width="13" height="14" stroke="#2F528F" stroke-miterlimit="8" fill="#4472C4"/><rect x="1725.5" y="195.5" width="13" height="14" stroke="#2F528F" stroke-miterlimit="8" fill="#4472C4"/><rect x="1673.5" y="215.5" width="13" height="14" stroke="#2F528F" stroke-miterlimit="8" fill="#4472C4"/><rect x="1691.5" y="215.5" width="13" height="14" stroke="#2F528F" stroke-miterlimit="8" fill="#4472C4"/><rect x="1708.5" y="215.5" width="13" height="14" stroke="#2F528F" stroke-miterlimit="8" fill="#4472C4"/><rect x="1725.5" y="215.5" width="13" height="14" stroke="#2F528F" stroke-miterlimit="8" fill="#4472C4"/><text font-family="Calibri,Calibri_MSFontService,sans-serif" font-weight="400" font-size="15" transform="matrix(-1.83697e-16 -1 1 -1.83697e-16 1683.66 132)">RX 1<tspan x="-3.25264e-15" y="17.7065">RX 2</tspan><tspan x="-6.38282e-15" y="34.7465">RX 3</tspan><tspan x="-9.63546e-15" y="52.453">RX 4</tspan></text><path d="M1672.5 105.5C1672.5 101.634 1675.44 98.5 1679.06 98.5L1698.94 98.5001C1702.56 98.5001 1705.5 95.3661 1705.5 91.5001 1705.5 95.3661 1708.44 98.5001 1712.06 98.5001L1731.94 98.5001C1735.56 98.5001 1738.5 101.634 1738.5 105.5" stroke="#4472C4" stroke-miterlimit="8" fill="none" fill-rule="evenodd"/><text font-family="Calibri,Calibri_MSFontService,sans-serif" font-weight="400" font-size="16" transform="translate(1691.59 83)">TX 2</text><rect x="1750.5" y="137.5" width="13" height="14" stroke="#2F528F" stroke-miterlimit="8" fill="#4472C4"/><rect x="1767.5" y="137.5" width="13" height="14" stroke="#2F528F" stroke-miterlimit="8" fill="#4472C4"/><rect x="1784.5" y="137.5" width="13" height="14" stroke="#2F528F" stroke-miterlimit="8" fill="#4472C4"/><rect x="1801.5" y="137.5" width="13" height="14" stroke="#2F528F" stroke-miterlimit="8" fill="#4472C4"/><rect x="1750.5" y="156.5" width="13" height="14" stroke="#2F528F" stroke-miterlimit="8" fill="#4472C4"/><rect x="1767.5" y="156.5" width="13" height="14" stroke="#2F528F" stroke-miterlimit="8" fill="#4472C4"/><rect x="1784.5" y="156.5" width="13" height="14" stroke="#2F528F" stroke-miterlimit="8" fill="#4472C4"/><rect x="1801.5" y="156.5" width="13" height="14" stroke="#2F528F" stroke-miterlimit="8" fill="#4472C4"/><rect x="1750.5" y="176.5" width="13" height="14" stroke="#2F528F" stroke-miterlimit="8" fill="#4472C4"/><rect x="1767.5" y="176.5" width="13" height="14" stroke="#2F528F" stroke-miterlimit="8" fill="#4472C4"/><rect x="1784.5" y="176.5" width="13" height="14" stroke="#2F528F" stroke-miterlimit="8" fill="#4472C4"/><rect x="1801.5" y="176.5" width="13" height="14" stroke="#2F528F" stroke-miterlimit="8" fill="#4472C4"/><rect x="1750.5" y="195.5" width="13" height="14" stroke="#2F528F" stroke-miterlimit="8" fill="#4472C4"/><rect x="1767.5" y="195.5" width="13" height="14" stroke="#2F528F" stroke-miterlimit="8" fill="#4472C4"/><rect x="1784.5" y="195.5" width="13" height="14" stroke="#2F528F" stroke-miterlimit="8" fill="#4472C4"/><rect x="1801.5" y="195.5" width="13" height="14" stroke="#2F528F" stroke-miterlimit="8" fill="#4472C4"/><rect x="1750.5" y="215.5" width="13" height="14" stroke="#2F528F" stroke-miterlimit="8" fill="#4472C4"/><rect x="1767.5" y="215.5" width="13" height="14" stroke="#2F528F" stroke-miterlimit="8" fill="#4472C4"/><rect x="1784.5" y="215.5" width="13" height="14" stroke="#2F528F" stroke-miterlimit="8" fill="#4472C4"/><rect x="1801.5" y="215.5" width="13" height="14" stroke="#2F528F" stroke-miterlimit="8" fill="#4472C4"/><text font-family="Calibri,Calibri_MSFontService,sans-serif" font-weight="400" font-size="15" transform="matrix(-1.83697e-16 -1 1 -1.83697e-16 1759.9 132)">RX 1<tspan x="-3.25264e-15" y="17.7065">RX 2</tspan><tspan x="-6.38282e-15" y="34.7465">RX 3</tspan><tspan x="-9.63546e-15" y="52.453">RX 4</tspan></text><path d="M1748.5 105.5C1748.5 101.634 1751.44 98.5 1755.06 98.5L1774.94 98.5001C1778.56 98.5001 1781.5 95.3661 1781.5 91.5001 1781.5 95.3661 1784.44 98.5001 1788.06 98.5001L1807.94 98.5001C1811.56 98.5001 1814.5 101.634 1814.5 105.5" stroke="#4472C4" stroke-miterlimit="8" fill="none" fill-rule="evenodd"/><text font-family="Calibri,Calibri_MSFontService,sans-serif" font-weight="400" font-size="16" transform="translate(1767.83 83)">TX 3</text><path d="M1595.5 75.5001C1595.5 67.7681 1596.92 61.5001 1598.68 61.5001L1813.32 61.5001C1815.08 61.5001 1816.5 67.7681 1816.5 75.5001" stroke="#4472C4" stroke-miterlimit="8" fill="none" fill-rule="evenodd"/><text font-family="Calibri,Calibri_MSFontService,sans-serif" font-weight="400" font-size="19" transform="translate(1679.12 53)">FREQ  2</text><path d="M1821.5 137.5C1824.81 137.5 1827.5 137.948 1827.5 138.5L1827.5 143.5C1827.5 144.052 1830.19 144.5 1833.5 144.5 1830.19 144.5 1827.5 144.948 1827.5 145.5L1827.5 150.5C1827.5 151.052 1824.81 151.5 1821.5 151.5" stroke="#4472C4" stroke-miterlimit="8" fill="none" fill-rule="evenodd"/><text font-family="Calibri,Calibri_MSFontService,sans-serif" font-weight="400" font-size="15" transform="translate(1840.2 149)">Time Division 1</text><path d="M1821.5 157.5C1824.81 157.5 1827.5 157.948 1827.5 158.5L1827.5 163C1827.5 163.552 1830.19 164 1833.5 164 1830.19 164 1827.5 164.448 1827.5 165L1827.5 169.5C1827.5 170.052 1824.81 170.5 1821.5 170.5" stroke="#4472C4" stroke-miterlimit="8" fill="none" fill-rule="evenodd"/><text font-family="Calibri,Calibri_MSFontService,sans-serif" font-weight="400" font-size="15" transform="translate(1840.2 169)">Time Division 2</text><path d="M1821.5 176.5C1824.81 176.5 1827.5 176.948 1827.5 177.5L1827.5 182.5C1827.5 183.052 1830.19 183.5 1833.5 183.5 1830.19 183.5 1827.5 183.948 1827.5 184.5L1827.5 189.5C1827.5 190.052 1824.81 190.5 1821.5 190.5" stroke="#4472C4" stroke-miterlimit="8" fill="none" fill-rule="evenodd"/><text font-family="Calibri,Calibri_MSFontService,sans-serif" font-weight="400" font-size="15" transform="translate(1840.2 188)">Time Division 3</text><path d="M1821.5 195.5C1824.81 195.5 1827.5 195.948 1827.5 196.5L1827.5 201.5C1827.5 202.052 1830.19 202.5 1833.5 202.5 1830.19 202.5 1827.5 202.948 1827.5 203.5L1827.5 208.5C1827.5 209.052 1824.81 209.5 1821.5 209.5" stroke="#4472C4" stroke-miterlimit="8" fill="none" fill-rule="evenodd"/><text font-family="Calibri,Calibri_MSFontService,sans-serif" font-weight="400" font-size="15" transform="translate(1840.2 207)">Time Division 4</text><path d="M1820.5 215.5C1824.09 215.5 1827 215.985 1827 216.583L1827 221.417C1827 222.015 1829.91 222.5 1833.5 222.5 1829.91 222.5 1827 222.985 1827 223.583L1827 228.417C1827 229.015 1824.09 229.5 1820.5 229.5" stroke="#4472C4" stroke-miterlimit="8" fill="none" fill-rule="evenodd"/><text font-family="Calibri,Calibri_MSFontService,sans-serif" font-weight="400" font-size="15" transform="translate(1840.18 227)">Time Division 5</text></g></svg>