<svg width="887" height="665" xmlns="http://www.w3.org/2000/svg" xmlns:xlink="http://www.w3.org/1999/xlink" overflow="hidden"><defs><clipPath id="clip0"><path d="M320 41 1207 41 1207 706 320 706Z" fill-rule="evenodd" clip-rule="evenodd"/></clipPath></defs><g clip-path="url(#clip0)" transform="translate(-320 -41)"><path d="M405 391.5C405 266.408 506.408 165 631.5 165 756.592 165 858 266.408 858 391.5 858 516.592 756.592 618 631.5 618 506.408 618 405 516.592 405 391.5Z" stroke="#7F6000" stroke-width="4" stroke-miterlimit="8" fill="#C19047" fill-rule="evenodd"/><path d="M602.5 667C602.5 646.289 619.513 629.5 640.5 629.5 661.487 629.5 678.5 646.289 678.5 667 678.5 687.711 661.487 704.5 640.5 704.5 619.513 704.5 602.5 687.711 602.5 667Z" stroke="#2F528F" stroke-miterlimit="8" fill="#4472C4" fill-rule="evenodd"/><text fill="#FFFFFF" font-family="Calibri,Calibri_MSFontService,sans-serif" font-weight="700" font-size="32" transform="translate(631.917 677)">0</text><path d="M602.5 116.5C602.5 96.0655 619.513 79.5001 640.5 79.5001 661.487 79.5001 678.5 96.0655 678.5 116.5 678.5 136.935 661.487 153.5 640.5 153.5 619.513 153.5 602.5 136.935 602.5 116.5Z" stroke="#2F528F" stroke-miterlimit="8" fill="#4472C4" fill-rule="evenodd"/><text fill="#FFFFFF" font-family="Calibri,Calibri_MSFontService,sans-serif" font-weight="700" font-size="32" transform="translate(631.917 127)">8</text><path d="M321.5 391.5C321.5 371.066 338.513 354.5 359.5 354.5 380.487 354.5 397.5 371.066 397.5 391.5 397.5 411.935 380.487 428.5 359.5 428.5 338.513 428.5 321.5 411.935 321.5 391.5Z" stroke="#2F528F" stroke-miterlimit="8" fill="#4472C4" fill-rule="evenodd"/><text fill="#FFFFFF" font-family="Calibri,Calibri_MSFontService,sans-serif" font-weight="700" font-size="32" transform="translate(342.919 402)">12</text><path d="M865.5 391.5C865.5 371.066 882.513 354.5 903.5 354.5 924.487 354.5 941.5 371.066 941.5 391.5 941.5 411.935 924.487 428.5 903.5 428.5 882.513 428.5 865.5 411.935 865.5 391.5Z" stroke="#2F528F" stroke-miterlimit="8" fill="#4472C4" fill-rule="evenodd"/><text fill="#FFFFFF" font-family="Calibri,Calibri_MSFontService,sans-serif" font-weight="700" font-size="32" transform="translate(894.831 402)">4</text><path d="M804.5 565.5C804.5 545.066 821.513 528.5 842.5 528.5 863.487 528.5 880.5 545.066 880.5 565.5 880.5 585.935 863.487 602.5 842.5 602.5 821.513 602.5 804.5 585.935 804.5 565.5Z" stroke="#2F528F" stroke-miterlimit="8" fill="#4472C4" fill-rule="evenodd"/><text fill="#FFFFFF" font-family="Calibri,Calibri_MSFontService,sans-serif" font-weight="700" font-size="32" transform="translate(834.031 576)">2</text><path d="M804.5 204.5C804.5 184.066 821.513 167.5 842.5 167.5 863.487 167.5 880.5 184.066 880.5 204.5 880.5 224.935 863.487 241.5 842.5 241.5 821.513 241.5 804.5 224.935 804.5 204.5Z" stroke="#2F528F" stroke-miterlimit="8" fill="#4472C4" fill-rule="evenodd"/><text fill="#FFFFFF" font-family="Calibri,Calibri_MSFontService,sans-serif" font-weight="700" font-size="32" transform="translate(834.031 215)">6</text><path d="M383.5 565.5C383.5 545.066 400.289 528.5 421 528.5 441.711 528.5 458.5 545.066 458.5 565.5 458.5 585.935 441.711 602.5 421 602.5 400.289 602.5 383.5 585.935 383.5 565.5Z" stroke="#2F528F" stroke-miterlimit="8" fill="#4472C4" fill-rule="evenodd"/><text fill="#FFFFFF" font-family="Calibri,Calibri_MSFontService,sans-serif" font-weight="700" font-size="32" transform="translate(404.405 576)">14</text><path d="M383.5 202.5C383.5 182.066 400.289 165.5 421 165.5 441.711 165.5 458.5 182.066 458.5 202.5 458.5 222.935 441.711 239.5 421 239.5 400.289 239.5 383.5 222.935 383.5 202.5Z" stroke="#2F528F" stroke-miterlimit="8" fill="#4472C4" fill-rule="evenodd"/><text fill="#FFFFFF" font-family="Calibri,Calibri_MSFontService,sans-serif" font-weight="700" font-size="32" transform="translate(404.405 212)">10</text><rect x="727.5" y="607.5" width="62" height="60" stroke="#2F528F" stroke-miterlimit="8" fill="#ED7D31"/><text fill="#FFFFFF" font-family="Calibri,Calibri_MSFontService,sans-serif" font-weight="700" font-size="32" transform="translate(749.631 647)">1</text><rect x="858.5" y="450.5" width="62" height="60" stroke="#2F528F" stroke-miterlimit="8" fill="#ED7D31"/><text fill="#FFFFFF" font-family="Calibri,Calibri_MSFontService,sans-serif" font-weight="700" font-size="32" transform="translate(880.889 490)">3</text><rect x="858.5" y="268.5" width="62" height="60" stroke="#2F528F" stroke-miterlimit="8" fill="#ED7D31"/><text fill="#FFFFFF" font-family="Calibri,Calibri_MSFontService,sans-serif" font-weight="700" font-size="32" transform="translate(880.888 309)">5</text><rect x="727.5" y="116.5" width="62" height="60" stroke="#2F528F" stroke-miterlimit="8" fill="#ED7D31"/><text fill="#FFFFFF" font-family="Calibri,Calibri_MSFontService,sans-serif" font-weight="700" font-size="32" transform="translate(749.631 157)">7</text><rect x="480.5" y="607.5" width="62" height="60" stroke="#2F528F" stroke-miterlimit="8" fill="#ED7D31"/><text fill="#FFFFFF" font-family="Calibri,Calibri_MSFontService,sans-serif" font-weight="700" font-size="32" transform="translate(494.719 647)">15</text><rect x="480.5" y="116.5" width="62" height="60" stroke="#2F528F" stroke-miterlimit="8" fill="#ED7D31"/><text fill="#FFFFFF" font-family="Calibri,Calibri_MSFontService,sans-serif" font-weight="700" font-size="32" transform="translate(502.774 157)">9</text><rect x="339.5" y="268.5" width="62" height="60" stroke="#2F528F" stroke-miterlimit="8" fill="#ED7D31"/><text fill="#FFFFFF" font-family="Calibri,Calibri_MSFontService,sans-serif" font-weight="700" font-size="32" transform="translate(353.662 309)">11</text><rect x="339.5" y="450.5" width="62" height="60" stroke="#2F528F" stroke-miterlimit="8" fill="#ED7D31"/><text fill="#FFFFFF" font-family="Calibri,Calibri_MSFontService,sans-serif" font-weight="700" font-size="32" transform="translate(353.89 490)">13</text><path d="M913.5 91.5C913.5 71.0655 930.289 54.5001 951 54.5001 971.711 54.5001 988.5 71.0655 988.5 91.5 988.5 111.935 971.711 128.5 951 128.5 930.289 128.5 913.5 111.935 913.5 91.5Z" stroke="#2F528F" stroke-miterlimit="8" fill="#4472C4" fill-rule="evenodd"/><rect x="920.5" y="149.5" width="62" height="60" stroke="#2F528F" stroke-miterlimit="8" fill="#ED7D31"/><text font-family="Calibri,Calibri_MSFontService,sans-serif" font-weight="400" font-size="32" transform="translate(1009.2 191)">Virtual User<tspan x="-1.37152" y="-86">Physical User</tspan></text><rect x="901.5" y="43.5001" width="304" height="181" stroke="#000000" stroke-miterlimit="8" fill="none"/></g></svg>